REM DIRINDEX 1\5,1\2\6,1\2\7,1\3\8,1\3\9,1\3\10,1\3\11,1\4\12,1\4\13,1\4\14
REM DIRNAME folder01,folder02,folder03,folder04,folder05,folder06,folder07,folder08,folder09,folder10,folder11,folder12,folder13,folder14
TITLE ""
FILE "5Q_h_021-032.mp3" MP3
  TRACK 01 AUDIO
    TITLE "5:cjc043_0062"
    INDEX 01 00:00:00
  TRACK 02 AUDIO
    TITLE "0:"
    INDEX 01 00:02:43
  TRACK 03 AUDIO
    TITLE "12:cjc043_0063"
    INDEX 01 00:03:21
  TRACK 04 AUDIO
    TITLE "0:"
    INDEX 01 00:04:25
  TRACK 05 AUDIO
    TITLE "13:cjc043_0064"
    INDEX 01 00:05:03
  TRACK 06 AUDIO
    TITLE "0:"
    INDEX 01 00:06:08
  TRACK 07 AUDIO
    TITLE "14:cjc043_0065"
    INDEX 01 00:06:59
  TRACK 08 AUDIO
    TITLE "0:"
    INDEX 01 00:09:30
  TRACK 09 AUDIO
    TITLE "12:cjc043_0066"
    INDEX 01 00:10:10
  TRACK 10 AUDIO
    TITLE "0:"
    INDEX 01 00:11:03
  TRACK 11 AUDIO
    TITLE "13:cjc043_0067"
    INDEX 01 00:11:58
  TRACK 12 AUDIO
    TITLE "0:"
    INDEX 01 00:12:50
  TRACK 13 AUDIO
    TITLE "14:cjc043_0068"
    INDEX 01 00:13:32
  TRACK 14 AUDIO
    TITLE "0:"
    INDEX 01 00:15:58
  TRACK 15 AUDIO
    TITLE "12:cjc043_0069"
    INDEX 01 00:16:32
  TRACK 16 AUDIO
    TITLE "0:"
    INDEX 01 00:18:68
  TRACK 17 AUDIO
    TITLE "13:cjc043_0070"
    INDEX 01 00:19:48
  TRACK 18 AUDIO
    TITLE "0:"
    INDEX 01 00:22:09
  TRACK 19 AUDIO
    TITLE "14:cjc043_0071"
    INDEX 01 00:22:66
  TRACK 20 AUDIO
    TITLE "0:"
    INDEX 01 00:25:66
  TRACK 21 AUDIO
    TITLE "12:cjc043_0072"
    INDEX 01 00:26:46
  TRACK 22 AUDIO
    TITLE "0:"
    INDEX 01 00:28:00
  TRACK 23 AUDIO
    TITLE "13:cjc043_0073"
    INDEX 01 00:28:57
  TRACK 24 AUDIO
    TITLE "0:"
    INDEX 01 00:30:12
  TRACK 25 AUDIO
    TITLE "14:cjc043_0074"
    INDEX 01 00:30:65
  TRACK 26 AUDIO
    TITLE "0:"
    INDEX 01 00:32:58
  TRACK 27 AUDIO
    TITLE "12:cjc043_0075"
    INDEX 01 00:33:32
  TRACK 28 AUDIO
    TITLE "0:"
    INDEX 01 00:35:64
  TRACK 29 AUDIO
    TITLE "13:cjc043_0076"
    INDEX 01 00:36:40
  TRACK 30 AUDIO
    TITLE "0:"
    INDEX 01 00:38:71
  TRACK 31 AUDIO
    TITLE "14:cjc043_0077"
    INDEX 01 00:39:47
  TRACK 32 AUDIO
    TITLE "0:"
    INDEX 01 00:42:55
  TRACK 33 AUDIO
    TITLE "12:cjc043_0078"
    INDEX 01 00:43:37
  TRACK 34 AUDIO
    TITLE "0:"
    INDEX 01 00:45:20
  TRACK 35 AUDIO
    TITLE "13:cjc043_0079"
    INDEX 01 00:45:71
  TRACK 36 AUDIO
    TITLE "0:"
    INDEX 01 00:47:56
  TRACK 37 AUDIO
    TITLE "14:cjc043_0080"
    INDEX 01 00:48:32
  TRACK 38 AUDIO
    TITLE "0:"
    INDEX 01 00:49:57
  TRACK 39 AUDIO
    TITLE "12:cjc043_0081"
    INDEX 01 00:50:31
  TRACK 40 AUDIO
    TITLE "0:"
    INDEX 01 00:52:36
  TRACK 41 AUDIO
    TITLE "13:cjc043_0082"
    INDEX 01 00:53:11
  TRACK 42 AUDIO
    TITLE "0:"
    INDEX 01 00:55:16
  TRACK 43 AUDIO
    TITLE "14:cjc043_0083"
    INDEX 01 00:55:69
  TRACK 44 AUDIO
    TITLE "0:"
    INDEX 01 00:57:39
  TRACK 45 AUDIO
    TITLE "12:cjc043_0084"
    INDEX 01 00:58:24
  TRACK 46 AUDIO
    TITLE "0:"
    INDEX 01 00:59:63
  TRACK 47 AUDIO
    TITLE "13:cjc043_0085"
    INDEX 01 01:00:47
  TRACK 48 AUDIO
    TITLE "0:"
    INDEX 01 01:02:10
  TRACK 49 AUDIO
    TITLE "14:cjc043_0086"
    INDEX 01 01:02:67
  TRACK 50 AUDIO
    TITLE "0:"
    INDEX 01 01:04:25
  TRACK 51 AUDIO
    TITLE "12:cjc043_0087"
    INDEX 01 01:05:07
  TRACK 52 AUDIO
    TITLE "0:"
    INDEX 01 01:06:69
  TRACK 53 AUDIO
    TITLE "13:cjc043_0088"
    INDEX 01 01:07:49
  TRACK 54 AUDIO
    TITLE "0:"
    INDEX 01 01:09:34
  TRACK 55 AUDIO
    TITLE "14:cjc043_0089"
    INDEX 01 01:10:14
  TRACK 56 AUDIO
    TITLE "0:"
    INDEX 01 01:12:05
  TRACK 57 AUDIO
    TITLE "12:cjc043_0090"
    INDEX 01 01:12:60
  TRACK 58 AUDIO
    TITLE "0:"
    INDEX 01 01:15:39
  TRACK 59 AUDIO
    TITLE "13:cjc043_0091"
    INDEX 01 01:16:16
  TRACK 60 AUDIO
    TITLE "0:"
    INDEX 01 01:18:68
  TRACK 61 AUDIO
    TITLE "14:cjc043_0092"
    INDEX 01 01:19:44
  TRACK 62 AUDIO
    TITLE "0:"
    INDEX 01 01:22:41
  TRACK 63 AUDIO
    TITLE "12:cjc043_0093"
    INDEX 01 01:23:16
  TRACK 64 AUDIO
    TITLE "0:"
    INDEX 01 01:24:73
  TRACK 65 AUDIO
    TITLE "13:cjc043_0094"
    INDEX 01 01:25:60
  TRACK 66 AUDIO
    TITLE "0:"
    INDEX 01 01:27:40
  TRACK 67 AUDIO
    TITLE "14:cjc043_0095"
    INDEX 01 01:28:27
  TRACK 68 AUDIO
    TITLE "0:"
    INDEX 01 01:30:07
  TRACK 69 AUDIO
    TITLE "12:cjc043_0096"
    INDEX 01 01:30:64
  TRACK 70 AUDIO
    TITLE "0:"
    INDEX 01 01:32:12
  TRACK 71 AUDIO
    TITLE "13:cjc043_0097"
    INDEX 01 01:32:72
  TRACK 72 AUDIO
    TITLE "0:"
    INDEX 01 01:34:20
  TRACK 73 AUDIO
    TITLE "14:cjc043_0098"
    INDEX 01 01:35:04
  TRACK 74 AUDIO
    TITLE "0:"
    INDEX 01 01:36:15
